# xmcd CD database file
#
# Track frame offsets:
#	150
#	15400
#	43004
#	65210
#	80123
#	89878
#	111494
#	130438
#	144876
#	161167
#	179210
#
# Disc length: 2559 seconds
#
# Revision: 0
# Processed by: cddbd v1.5.2PL0 Copyright (c) Steve Scherf et al.
# Submitted via: CDex 1.96
#
DISCID=ab09fd0b
DTITLE=Bill Cooley - a turn in the road
DYEAR=2004
DGENRE=Country
TTITLE0=Butter Fingers
TTITLE1=Uno Tuno
TTITLE2=The Voice of the Wood
TTITLE3=Scooter Pie
TTITLE4=Early Sunday Morning
TTITLE5=Underground City
TTITLE6=I'll Be the First to Agree
TTITLE7=The Double Rose Jig
TTITLE8=Well Strung
TTITLE9=Black Smoke
TTITLE10=A Forgotten Wish
EXTD=YEAR: 2004
EXTT0=
EXTT1=
EXTT2=
EXTT3=
EXTT4=
EXTT5=
EXTT6=
EXTT7=
EXTT8=
EXTT9=
EXTT10=
PLAYORDER=
